HIERARCHY
ROOT joint_Root
{
	OFFSET 0.0 0.0 0.0
	CHANNELS 6 Xposition Yposition Zposition Zrotation Xrotation Yrotation 
	JOINT Hips
	{
		OFFSET -0.726466 93.3139 -2.00062
		CHANNELS 6 Xposition Yposition Zposition Zrotation Xrotation Yrotation 
		JOINT Spine
		{
			OFFSET 15.7357 0.0 0.0
			CHANNELS 6 Xposition Yposition Zposition Zrotation Xrotation Yrotation 
			JOINT Chest
			{
				OFFSET 8.98455 -0.406207 0.0
				CHANNELS 6 Xposition Yposition Zposition Zrotation Xrotation Yrotation 
				JOINT Neck
				{
					OFFSET 16.3773 0.0 0.0
					CHANNELS 6 Xposition Yposition Zposition Zrotation Xrotation Yrotation 
					JOINT Head
					{
						OFFSET 6.45672 0.0 0.0
						CHANNELS 6 Xposition Yposition Zposition Zrotation Xrotation Yrotation 
						End Site
						{
							OFFSET 0.0 0.0 0.0
						}
					}
				}
				JOINT Shoulder_L
				{
					OFFSET 12.9942 -0.242716 4.98039
					CHANNELS 6 Xposition Yposition Zposition Zrotation Xrotation Yrotation 
					JOINT UpperArm_L
					{
						OFFSET 5.34809 0.0 0.0
						CHANNELS 6 Xposition Yposition Zposition Zrotation Xrotation Yrotation 
						JOINT LowerArm_L
						{
							OFFSET 24.3286 1.87007e-05 0.0
							CHANNELS 6 Xposition Yposition Zposition Zrotation Xrotation Yrotation 
							JOINT Hand_L
							{
								OFFSET 22.2916 0.0 0.0
								CHANNELS 6 Xposition Yposition Zposition Zrotation Xrotation Yrotation 
								End Site
								{
									OFFSET 0.0 0.0 0.0
								}
							}
						}
					}
				}
				JOINT Shoulder_R
				{
					OFFSET 12.9945 -0.242716 -4.98039
					CHANNELS 6 Xposition Yposition Zposition Zrotation Xrotation Yrotation 
					JOINT UpperArm_R
					{
						OFFSET -5.34813 0.0 0.0
						CHANNELS 6 Xposition Yposition Zposition Zrotation Xrotation Yrotation 
						JOINT LowerArm_R
						{
							OFFSET -24.3289 0.000322201 0.0
							CHANNELS 6 Xposition Yposition Zposition Zrotation Xrotation Yrotation 
							JOINT Hand_R
							{
								OFFSET -22.2915 -0.000108084 0.0
								CHANNELS 6 Xposition Yposition Zposition Zrotation Xrotation Yrotation 
								End Site
								{
									OFFSET 0.0 0.0 0.0
								}
							}
						}
					}
				}
			}
		}
		JOINT UpperLeg_L
		{
			OFFSET -2.19248 -6.46944 0.0
			CHANNELS 6 Xposition Yposition Zposition Zrotation Xrotation Yrotation 
			JOINT LowerLeg_L
			{
				OFFSET 39.0811 0.0 -1.23785e-05
				CHANNELS 6 Xposition Yposition Zposition Zrotation Xrotation Yrotation 
				JOINT Foot_L
				{
					OFFSET 40.9854 0.0 -1.26872e-05
					CHANNELS 6 Xposition Yposition Zposition Zrotation Xrotation Yrotation 
					JOINT Toes_L
					{
						OFFSET 11.7543 0.0 0.0
						CHANNELS 6 Xposition Yposition Zposition Zrotation Xrotation Yrotation 
						End Site
						{
							OFFSET 0.0 0.0 0.0
						}
					}
				}
			}
		}
		JOINT UpperLeg_R
		{
			OFFSET -2.19251 6.46944 0.0
			CHANNELS 6 Xposition Yposition Zposition Zrotation Xrotation Yrotation 
			JOINT LowerLeg_R
			{
				OFFSET -39.0811 -0.00228153 -0.0401928
				CHANNELS 6 Xposition Yposition Zposition Zrotation Xrotation Yrotation 
				JOINT Foot_R
				{
					OFFSET -40.9854 0.0 0.0
					CHANNELS 6 Xposition Yposition Zposition Zrotation Xrotation Yrotation 
					JOINT Toes_R
					{
						OFFSET -11.7543 0.0 0.0
						CHANNELS 6 Xposition Yposition Zposition Zrotation Xrotation Yrotation 
						End Site
						{
							OFFSET 0.0 0.0 0.0
						}
					}
				}
			}
		}
	}
}
MOTION
Frames:	8
Frame Time:	0.0333333
0.000000 0.000000 0.000000 0.000000 0.000000 -0.000000 -1.357820 91.980900 0.038469 87.407300 -1.350860 1.463600 15.735700 0.000005 -0.000001 86.415800 86.217100 -86.174600 8.984550 -0.406207 -0.000000 -0.213902 -0.489660 0.481171 16.377300 -0.000001 -0.000001 3.359000 -0.872166 -1.123510 6.456720 -0.000001 -0.000000 1.698380 -0.336082 4.325430 12.994200 -0.242716 4.980390 -89.335100 -1.764270 -69.346200 5.348090 -0.000007 -0.000001 -67.695900 38.501700 -13.224100 24.328600 0.000019 0.000005 2.129400 4.706770 -24.375600 22.291600 -0.000001 0.000005 5.966630 5.560900 -9.231700 12.994500 -0.242716 -4.980390 87.663900 6.025080 -68.760900 -5.348130 -0.000001 -0.000004 -62.067900 42.703000 -8.640300 -24.328900 0.000322 -0.000009 -0.027836 -0.039407 -34.260700 -22.291500 -0.000108 -0.000004 8.404280 5.643660 -14.435800 -2.192480 -6.469440 -0.000000 -167.964000 -16.297700 -3.030790 39.081100 -0.000007 -0.000012 -0.192647 0.513818 20.552900 40.985400 -0.000006 -0.000013 -7.467070 1.726230 -63.740400 11.754300 -0.000000 0.000003 -0.000152 -0.001465 -16.633200 -2.192510 6.469440 -0.000001 174.745000 20.562300 179.084000 -39.081100 -0.002282 -0.040193 -0.068765 0.222491 17.953000 -40.985400 0.000008 0.000006 -4.677150 4.000030 -63.309400 -11.754300 -0.000006 -0.000006 -0.004563 -0.057177 -18.899200
0.000000 0.000000 0.000000 0.000000 0.000000 -0.000000 -1.355290 91.993500 -0.036884 87.438100 -1.314030 1.361100 15.735700 0.000005 -0.000001 86.272300 86.166500 -85.954100 8.984550 -0.406207 -0.000000 -0.113801 -0.520221 0.635450 16.377300 -0.000001 -0.000001 3.145690 -0.855495 -1.025870 6.456720 -0.000001 -0.000000 1.338340 -0.300435 4.413690 12.994200 -0.242716 4.980390 -89.352400 -1.716310 -69.322500 5.348090 -0.000007 -0.000001 -67.552300 38.309300 -13.325800 24.328600 0.000019 0.000005 2.725050 5.777190 -25.305400 22.291600 -0.000001 0.000005 5.814470 5.562010 -9.286130 12.994500 -0.242716 -4.980390 87.752400 5.740410 -68.575200 -5.348130 -0.000001 -0.000004 -59.956900 45.982300 -7.744010 -24.328900 0.000322 -0.000009 0.254708 0.298906 -40.502200 -22.291500 -0.000108 -0.000004 8.400420 5.653190 -15.333800 -2.192480 -6.469440 -0.000000 -168.044000 -16.262100 -3.162170 39.081100 -0.000007 -0.000012 -0.189664 0.507886 20.477800 40.985400 -0.000006 -0.000013 -7.458570 1.710790 -63.654900 11.754300 -0.000000 0.000003 -0.000137 -0.001344 -16.628800 -2.192510 6.469440 -0.000001 174.787000 20.516400 178.931000 -39.081100 -0.002282 -0.040193 -0.067778 0.219945 17.914800 -40.985400 0.000008 0.000006 -4.788620 3.854500 -63.234000 -11.754300 -0.000006 -0.000006 -0.004639 -0.057928 -18.929800
0.000000 0.000000 0.000000 0.000000 0.000000 -0.000000 -1.341120 92.003800 -0.074429 87.434900 -1.187020 1.329370 15.735700 0.000005 -0.000001 85.682600 86.090600 -85.258200 8.984550 -0.406207 -0.000000 0.033027 -0.617082 0.848376 16.377300 -0.000001 -0.000001 2.940240 -0.853743 -0.908000 6.456720 -0.000001 -0.000000 0.925036 -0.179412 4.430230 12.994200 -0.242716 4.980390 -89.396000 -1.596050 -69.266500 5.348090 -0.000007 -0.000001 -66.895400 37.992000 -13.514900 24.328600 0.000019 0.000005 3.508770 7.025460 -26.623400 22.291600 -0.000001 0.000005 5.908490 5.566780 -9.523460 12.994500 -0.242716 -4.980390 87.925300 5.236780 -68.351700 -5.348130 -0.000001 -0.000004 -58.100100 48.510100 -6.299290 -24.328900 0.000322 -0.000009 0.817049 0.743964 -47.694600 -22.291500 -0.000108 -0.000004 7.335890 5.660440 -16.115400 -2.192480 -6.469440 -0.000000 -168.070000 -16.281000 -3.256300 39.081100 -0.000007 -0.000012 -0.190057 0.509253 20.466200 40.985400 -0.000006 -0.000013 -7.411790 1.826350 -63.595200 11.754300 -0.000000 0.000003 -0.000149 -0.001448 -16.632600 -2.192510 6.469440 -0.000001 174.818000 20.524800 178.886000 -39.081100 -0.002282 -0.040193 -0.065908 0.214163 17.914600 -40.985400 0.000008 0.000006 -4.554520 3.767060 -63.251500 -11.754300 -0.000006 -0.000006 -0.004600 -0.057543 -18.914200
0.000000 0.000000 0.000000 0.000000 0.000000 -0.000000 -1.308390 92.030800 -0.127603 87.507700 -1.136070 1.225730 15.735700 0.000005 -0.000001 84.877400 86.039000 -84.362700 8.984550 -0.406207 -0.000000 0.127849 -0.741429 1.029460 16.377300 -0.000001 -0.000001 2.675720 -0.814785 -0.824055 6.456720 -0.000001 -0.000000 0.591997 0.007402 4.583650 12.994200 -0.242716 4.980390 -89.440600 -1.462270 -69.062800 5.348090 -0.000007 -0.000001 -65.610100 37.312300 -13.894300 24.328600 0.000019 0.000005 4.545590 8.498520 -28.276800 22.291600 -0.000001 0.000005 5.704190 5.571690 -9.775660 12.994500 -0.242716 -4.980390 88.169000 4.568790 -68.132800 -5.348130 -0.000001 -0.000004 -55.822100 51.190400 -4.948380 -24.328900 0.000322 -0.000009 1.120750 0.770102 -55.533600 -22.291500 -0.000108 -0.000004 5.306440 5.660640 -16.127700 -2.192480 -6.469440 -0.000000 -168.213000 -16.226000 -3.305700 39.081100 -0.000007 -0.000012 -0.184719 0.500706 20.250100 40.985400 -0.000006 -0.000013 -7.386270 1.810910 -63.462400 11.754300 -0.000000 0.000003 -0.000126 -0.001252 -16.625400 -2.192510 6.469440 -0.000001 174.814000 20.521700 178.750000 -39.081100 -0.002282 -0.040193 -0.062240 0.203559 17.853600 -40.985400 0.000008 0.000006 -4.450260 3.639750 -63.184400 -11.754300 -0.000006 -0.000006 -0.004480 -0.056342 -18.865200
0.000000 0.000000 0.000000 0.000000 0.000000 -0.000000 -1.298690 92.038000 -0.153888 87.557400 -0.999377 1.226500 15.735700 0.000005 -0.000001 84.007000 85.968700 -83.393900 8.984550 -0.406207 -0.000000 0.257627 -0.881712 1.227430 16.377300 -0.000001 -0.000001 2.528760 -0.833904 -0.697003 6.456720 -0.000001 -0.000000 0.166738 0.160445 4.749020 12.994200 -0.242716 4.980390 -89.448500 -1.433230 -68.950000 5.348090 -0.000007 -0.000001 -63.563600 36.255500 -14.694300 24.328600 0.000019 0.000005 5.458870 9.654650 -29.675100 22.291600 -0.000001 0.000005 5.620090 5.577410 -10.073400 12.994500 -0.242716 -4.980390 88.441600 3.818360 -67.778600 -5.348130 -0.000001 -0.000004 -53.218800 53.962100 -3.795210 -24.328900 0.000322 -0.000009 1.760020 0.886331 -63.270000 -22.291500 -0.000108 -0.000004 4.101070 5.660970 -16.172700 -2.192480 -6.469440 -0.000000 -168.286000 -16.246100 -3.352610 39.081100 -0.000007 -0.000012 -0.182319 0.495077 20.217200 40.985400 -0.000006 -0.000013 -7.339690 1.922750 -63.395200 11.754300 -0.000000 0.000003 -0.000144 -0.001402 -16.630900 -2.192510 6.469440 -0.000001 174.780000 20.473700 178.741000 -39.081100 -0.002282 -0.040193 -0.060950 0.199485 17.859300 -40.985400 0.000008 0.000006 -4.425750 3.490610 -63.196100 -11.754300 -0.000006 -0.000006 -0.004420 -0.055738 -18.840600
0.000000 0.000000 0.000000 0.000000 0.000000 -0.000000 -1.296180 92.048800 -0.191784 87.601600 -0.902851 1.157390 15.735700 0.000005 -0.000001 82.704400 85.912200 -81.971200 8.984550 -0.406207 -0.000000 0.350817 -1.085320 1.468680 16.377300 -0.000001 -0.000001 2.347480 -0.787167 -0.604189 6.456720 -0.000001 -0.000000 -0.180895 0.393151 4.999840 12.994200 -0.242716 4.980390 -89.466700 -1.371640 -68.749800 5.348090 -0.000007 -0.000001 -60.360800 34.909000 -16.244800 24.328600 0.000019 0.000005 5.937290 10.177100 -30.480200 22.291600 -0.000001 0.000005 5.437210 5.576340 -10.017800 12.994500 -0.242716 -4.980390 88.776000 2.973130 -67.611800 -5.348130 -0.000001 -0.000004 -50.774200 56.252600 -2.638670 -24.328900 0.000322 -0.000009 3.313830 1.169560 -70.565400 -22.291500 -0.000108 -0.000004 3.537920 5.660860 -16.158200 -2.192480 -6.469440 -0.000000 -168.369000 -16.201200 -3.432330 39.081100 -0.000007 -0.000012 -0.179628 0.490065 20.130100 40.985400 -0.000006 -0.000013 -7.323760 1.945370 -63.318500 11.754300 -0.000000 0.000003 -0.000144 -0.001407 -16.631100 -2.192510 6.469440 -0.000001 174.775000 20.521000 178.655000 -39.081100 -0.002282 -0.040193 -0.059600 0.195375 17.852400 -40.985400 0.000008 0.000006 -4.382290 3.401130 -63.181200 -11.754300 -0.000006 -0.000006 -0.004499 -0.056532 -18.872900
0.000000 0.000000 0.000000 0.000000 0.000000 -0.000000 -1.331490 92.047800 -0.212927 87.639600 -0.737605 1.220030 15.735700 0.000005 -0.000001 81.211000 85.819000 -80.334300 8.984550 -0.406207 -0.000000 0.508859 -1.332770 1.758150 16.377300 -0.000001 -0.000001 2.220720 -0.734901 -0.583587 6.456720 -0.000001 -0.000000 -0.516355 0.606474 5.250070 12.994200 -0.242716 4.980390 -89.476400 -1.337470 -68.616600 5.348090 -0.000007 -0.000001 -56.672700 32.566200 -18.027800 24.328600 0.000019 0.000005 5.978940 10.103600 -30.837300 22.291600 -0.000001 0.000005 5.409850 5.576490 -10.025000 12.994500 -0.242716 -4.980390 89.145000 2.069540 -67.546600 -5.348130 -0.000001 -0.000004 -48.592200 58.279900 -1.398930 -24.328900 0.000322 -0.000009 6.592930 1.469820 -77.469300 -22.291500 -0.000108 -0.000004 3.520650 5.661100 -16.184000 -2.192480 -6.469440 -0.000000 -168.360000 -16.283200 -3.416400 39.081100 -0.000007 -0.000012 -0.179144 0.489327 20.108000 40.985400 -0.000006 -0.000013 -7.297970 2.171840 -63.238400 11.754300 -0.000000 0.000003 -0.000145 -0.001410 -16.631200 -2.192510 6.469440 -0.000001 174.724000 20.642200 178.720000 -39.081100 -0.002282 -0.040193 -0.061708 0.201445 17.891900 -40.985400 0.000008 0.000006 -4.436840 3.370320 -63.208700 -11.754300 -0.000006 -0.000006 -0.004429 -0.055832 -18.844400
0.000000 0.000000 0.000000 0.000000 0.000000 -0.000000 -1.381970 92.052100 -0.241380 87.646800 -0.640978 1.221010 15.735700 0.000005 -0.000001 79.970100 85.748600 -78.926100 8.984550 -0.406207 -0.000000 0.622191 -1.545440 2.094980 16.377300 -0.000001 -0.000001 2.088750 -0.618670 -0.645493 6.456720 -0.000001 -0.000000 -0.827607 0.822510 5.553560 12.994200 -0.242716 4.980390 -89.401700 -1.519040 -68.497400 5.348090 -0.000007 -0.000001 -53.009700 29.075500 -19.832800 24.328600 0.000019 0.000005 5.834750 9.780930 -31.028100 22.291600 -0.000001 0.000005 5.850770 5.575970 -10.000200 12.994500 -0.242716 -4.980390 89.515400 1.168810 -67.479500 -5.348130 -0.000001 -0.000004 -46.490500 60.493700 -0.512166 -24.328900 0.000322 -0.000009 10.798100 1.250830 -83.457600 -22.291500 -0.000108 -0.000004 5.069410 5.667280 -16.935300 -2.192480 -6.469440 -0.000000 -168.327000 -16.287800 -3.422860 39.081100 -0.000007 -0.000012 -0.178049 0.488313 20.033200 40.985400 -0.000006 -0.000013 -7.310810 2.297350 -63.150700 11.754300 -0.000000 0.000003 -0.000137 -0.001346 -16.628800 -2.192510 6.469440 -0.000001 174.765000 20.727100 178.698000 -39.081100 -0.002282 -0.040193 -0.060112 0.196159 17.921100 -40.985400 0.000008 0.000006 -4.428210 3.310560 -63.222000 -11.754300 -0.000006 -0.000006 -0.004583 -0.057368 -18.907000
